<?xml version="1.0" standalone="no"?><!DOCTYPE svg PUBLIC "-//W3C//DTD SVG 1.1//EN" "http://www.w3.org/Graphics/SVG/1.1/DTD/svg11.dtd"><svg class="icon" width="200px" height="200.00px" viewBox="0 0 1024 1024" version="1.1" xmlns="http://www.w3.org/2000/svg"><path d="M581.077333 896c-3.626667 0-6.016-2.432-5.418666-5.418667V133.418667c0-2.389333 1.792-4.821333 4.821333-4.821334h118.826667A196.693333 196.693333 0 0 1 896 325.290667v374.016A196.693333 196.693333 0 0 1 699.306667 896h-118.186667z m146.005334-423.509333c-42.837333 0-77.824 34.986667-77.824 77.824s34.986667 77.824 77.824 77.824 77.824-34.986667 77.824-77.824-34.986667-77.824-77.824-77.824zM247.466667 358.4a72.533333 72.533333 0 0 1 72.362666-72.362667A72.533333 72.533333 0 0 1 392.234667 358.4c0 39.850667-32.554667 72.405333-72.405334 72.405333A72.618667 72.618667 0 0 1 247.466667 358.442667zM492.373333 128c3.626667 0 6.058667 2.432 5.461334 5.418667V890.026667c0 2.986667-2.432 5.418667-5.461334 5.418666H324.693333A196.693333 196.693333 0 0 1 128 698.709333V324.693333A196.693333 196.693333 0 0 1 324.693333 128h167.68z m-56.106666 705.877333V189.525333H324.693333c-36.224 0-69.973333 14.506667-95.36 39.808a131.754667 131.754667 0 0 0-39.808 95.36v374.016c0 36.224 14.506667 69.973333 39.808 95.317334a131.754667 131.754667 0 0 0 95.36 39.850666h111.573334z" /></svg>